#!OML:ASF H:\Dans Jumps\Project 1\Capture day 1\Session 1\subject.ASF
:FULLY-SPECIFIED
:DEGREES
346
root 0.413952 22.2828 1.81987 10.1141 1.59329 -1.29011
lowerback 12.7075 0.588058 -2.17065
upperback 3.82613 0.54548 0.987151
thorax -3.13667 0.271124 2.17223
lowerneck -9.65062 -0.564105 -1.57203
upperneck 21.4346 -0.915426 1.97891
head 8.24391 -0.361096 0.834364
rclavicle -1.62755e-015 -1.08089e-014
rhumerus -25.78 -1.79522 -77.2272
rradius 34.7311
rwrist 34.8484
rhand -15.3911 -24.7898
rfingers 7.12502
rthumb 10.7875 -54.4928
lclavicle -1.62755e-015 -1.08089e-014
lhumerus -35.3121 -18.439 81.4794
lradius 27.3982
lwrist 25.1193
lhand -21.8271 -4.63575
lfingers 7.12502
lthumb 4.57574 25.2948
rfemur -47.8503 -9.59146 25.0446
rtibia 57.5402
rfoot 1.91431 1.79405
rtoes 1.20154
lfemur -46.2712 12.8824 -23.5444
ltibia 45.6015
lfoot 6.88523 -3.79387
ltoes -12.1491
347
root 0.421324 22.1129 2.11005 9.87412 1.54601 -1.29651
lowerback 12.3773 0.605259 -2.15029
upperback 3.86614 0.575848 0.947515
thorax -2.91622 0.28317 2.11593
lowerneck -9.52025 -0.596894 -1.5473
upperneck 21.7347 -0.999688 2.10874
head 8.32307 -0.386123 0.866752
rclavicle 2.24875e-015 -6.03808e-015
rhumerus -26.2403 -1.53566 -77.3616
rradius 35.1392
rwrist 34.6604
rhand -15.4545 -24.8412
rfingers 7.12502
rthumb 10.7263 -54.5474
lclavicle 2.24875e-015 -6.03808e-015
lhumerus -35.8473 -18.4368 81.6469
lradius 28.2159
lwrist 26.0641
lhand -21.7901 -4.46024
lfingers 7.12502
lthumb 4.6115 25.4696
rfemur -46.7038 -9.41656 24.9057
rtibia 53.4262
rfoot 3.42106 1.34061
rtoes 1.60161
lfemur -45.4332 12.8636 -23.4434
ltibia 43.0309
lfoot 7.61811 -4.77387
ltoes -12.3254
348
root 0.428858 21.9285 2.40739 9.62803 1.46704 -1.27297
lowerback 11.9562 0.628484 -2.16488
upperback 3.89972 0.611732 0.902508
thorax -2.65338 0.297608 2.07387
lowerneck -9.36104 -0.623323 -1.55347
upperneck 22.0182 -1.07196 2.24649
head 8.39162 -0.407217 0.908329
rclavicle -1.17656e-014 -1.05356e-014
rhumerus -26.7748 -1.14263 -77.485
rradius 35.6562
rwrist 34.3827
rhand -15.477 -24.8887
rfingers 7.12502
rthumb 10.7046 -54.596
lclavicle -1.17656e-014 -1.05356e-014
lhumerus -36.4921 -18.4859 81.7973
lradius 29.1528
lwrist 27.0944
lhand -21.7369 -4.2825
lfingers 7.12502
lthumb 4.66283 25.6462
rfemur -45.4967 -9.25357 24.7202
rtibia 49.3394
rfoot 5 1.01023
rtoes 2.03356
lfemur -44.4887 12.8206 -23.3194
ltibia 40.4826
lfoot 8.40911 -5.54205
ltoes -12.4051
349
root 0.436691 21.7305 2.71044 9.37808 1.36879 -1.23545
lowerback 11.4546 0.652592 -2.19084
upperback 3.91921 0.649512 0.855949
thorax -2.36127 0.312812 2.03743
lowerneck -9.18419 -0.644064 -1.58379
upperneck 22.3084 -1.13146 2.37788
head 8.4593 -0.424871 0.953384
rclavicle 5.26779e-015 1.49089e-015
rhumerus -27.3932 -0.624948 -77.5984
rradius 36.2826
rwrist 34.0411
rhand -15.4952 -24.9199
rfingers 7.12502
rthumb 10.6871 -54.6281
lclavicle 5.26779e-015 1.49089e-015
lhumerus -37.2708 -18.6054 81.9384
lradius 30.2256
lwrist 28.2078
lhand -21.7194 -4.20132
lfingers 7.12502
lthumb 4.67969 25.727
rfemur -44.2547 -9.09918 24.5008
rtibia 45.3195
rfoot 6.61706 0.794849
rtoes 2.58992
lfemur -43.4508 12.7288 -23.1496
ltibia 37.958
lfoot 9.32116 -6.0881
ltoes -12.3319
350
root 0.445008 21.5211 3.01805 9.11934 1.25593 -1.20431
lowerback 10.8852 0.679226 -2.19456
upperback 3.92581 0.694908 0.808254
thorax -2.04535 0.331775 1.98751
lowerneck -8.98884 -0.662213 -1.62261
upperneck 22.6121 -1.18268 2.49084
head 8.52822 -0.441141 0.994831
rclavicle -4.22417e-016 4.82053e-015
rhumerus -28.0751 -0.0188731 -77.6997
rradius 36.9952
rwrist 33.6762
rhand -15.5062 -24.9377
rfingers 7.12502
rthumb 10.6765 -54.6465
lclavicle -4.22417e-016 4.82053e-015
lhumerus -38.1878 -18.8203 82.0745
lradius 31.4406
lwrist 29.3752
lhand -21.7465 -4.26594
lfingers 7.12502
lthumb 4.65354 25.6629
rfemur -42.9879 -8.93698 24.2589
rtibia 41.4023
rfoot 8.23674 0.681936
rtoes 3.27872
lfemur -42.3184 12.5691 -22.9048
ltibia 35.4527
lfoot 10.383 -6.41709
ltoes -11.9674
351
root 0.454001 21.3027 3.32913 8.84616 1.13027 -1.19423
lowerback 10.2586 0.707315 -2.1521
upperback 3.91612 0.748167 0.758175
thorax -1.71437 0.355024 1.90958
lowerneck -8.77236 -0.681828 -1.65239
upperneck 22.9421 -1.23184 2.57321
head 8.60224 -0.458695 1.02504
rclavicle 1.51573e-015 -6.75868e-015
rhumerus -28.8332 0.656987 -77.7921
rradius 37.8016
rwrist 33.3044
rhand -15.5397 -24.9436
rfingers 7.12502
rthumb 10.6442 -54.654
lclavicle 1.51573e-015 -6.75868e-015
lhumerus -39.2421 -19.114 82.1905
lradius 32.7989
lwrist 30.5415
lhand -21.7939 -4.40295
lfingers 7.12502
lthumb 4.60777 25.5269
rfemur -41.7038 -8.74301 23.9952
rtibia 37.6259
rfoot 9.84533 0.626114
rtoes 4.28089
lfemur -41.087 12.3309 -22.5678
ltibia 32.9624
lfoot 11.5767 -6.54644
ltoes -11.2089
352
root 0.46338 21.0764 3.64265 8.5543 0.985828 -1.215
lowerback 9.59081 0.741517 -2.05369
upperback 3.89291 0.815032 0.707036
thorax -1.374 0.385746 1.79922
lowerneck -8.54284 -0.700201 -1.67558
upperneck 23.3038 -1.27459 2.6253
head 8.68464 -0.475603 1.04495
rclavicle -3.47873e-016 8.94531e-016
rhumerus -29.6278 1.37146 -77.8715
rradius 38.6674
rwrist 32.9381
rhand -15.5973 -24.9385
rfingers 7.12502
rthumb 10.5886 -54.6518
lclavicle -3.47873e-016 8.94531e-016
lhumerus -40.398 -19.4654 82.27
lradius 34.279
lwrist 31.6429
lhand -21.8297 -4.51282
lfingers 7.12502
lthumb 4.57319 25.4178
rfemur -40.4168 -8.46843 23.702
rtibia 34.0407
rfoot 11.4325 0.566196
rtoes 5.65958
lfemur -39.7605 12.0081 -22.1275
ltibia 30.4916
lfoot 12.8483 -6.48343
ltoes -10.1226
353
root 0.47327 20.8429 3.9579 8.24098 0.822458 -1.27247
lowerback 8.89156 0.783858 -1.88694
upperback 3.85523 0.897642 0.65316
thorax -1.02997 0.425471 1.64798
lowerneck -8.29349 -0.722749 -1.6877
upperneck 23.6954 -1.32084 2.65459
head 8.77396 -0.495426 1.05529
rclavicle -5.59082e-015 -5.71506e-015
rhumerus -30.4516 2.08684 -77.9323
rradius 39.5869
rwrist 32.5883
rhand -15.6567 -24.9426
rfingers 7.12502
rthumb 10.5313 -54.6588
lclavicle -5.59082e-015 -5.71506e-015
lhumerus -41.6293 -19.8568 82.3038
lradius 35.8322
lwrist 32.6017
lhand -21.8788 -4.61926
lfingers 7.12502
lthumb 4.52581 25.3124
rfemur -39.1507 -8.09704 23.3808
rtibia 30.7172
rfoot 12.9663 0.441072
rtoes 7.38556
lfemur -38.3496 11.6018 -21.5886
ltibia 28.0632
lfoot 14.1414 -6.23069
ltoes -8.89267
354
root 0.483123 20.601 4.27368 7.90732 0.639463 -1.34615
lowerback 8.17682 0.835416 -1.68227
upperback 3.80749 0.993266 0.594452
thorax -0.686135 0.472831 1.47154
lowerneck -8.06439 -0.743431 -1.68546
upperneck 24.1283 -1.36202 2.65949
head 8.88142 -0.513683 1.05576
rclavicle -1.61513e-015 -1.19271e-015
rhumerus -31.2623 2.77832 -77.9689
rradius 40.5317
rwrist 32.2546
rhand -15.7299 -24.9403
rfingers 7.12502
rthumb 10.4607 -54.66
lclavicle -1.61513e-015 -1.19271e-015
lhumerus -42.8928 -20.2606 82.2806
lradius 37.4097
lwrist 33.3799
lhand -21.9664 -4.71872
lfingers 7.12502
lthumb 4.44119 25.2147
rfemur -37.9478 -7.61249 23.0162
rtibia 27.7496
rfoot 14.375 0.14601
rtoes 9.37353
lfemur -36.8879 11.1244 -20.9933
ltibia 25.7224
lfoot 15.4265 -5.79196
ltoes -7.69526
355
root 0.492854 20.3486 4.58934 7.55011 0.435523 -1.42284
lowerback 7.46214 0.896749 -1.45918
upperback 3.75033 1.10025 0.530798
thorax -0.350191 0.526966 1.28113
lowerneck -7.84924 -0.76259 -1.67781
upperneck 24.5881 -1.39982 2.65339
head 9.00137 -0.530708 1.05212
rclavicle -1.28216e-014 3.67752e-015
rhumerus -32.0232 3.41224 -77.9737
rradius 41.4566
rwrist 31.9373
rhand -15.7959 -24.9335
rfingers 7.12502
rthumb 10.397 -54.6565
lclavicle -1.28216e-014 3.67752e-015
lhumerus -44.1542 -20.6704 82.2018
lradius 38.9627
lwrist 34.0009
lhand -22.073 -4.75178
lfingers 7.12502
lthumb 4.33829 25.1838
rfemur -36.8483 -7.04556 22.6278
rtibia 25.2431
rfoot 15.5507 -0.407728
rtoes 11.4925
lfemur -35.414 10.6301 -20.3964
ltibia 23.5347
lfoot 16.6797 -5.20474
ltoes -6.6928
356
root 0.502371 20.0841 4.90372 7.16528 0.214356 -1.48643
lowerback 6.77102 0.966577 -1.24163
upperback 3.68603 1.21491 0.463023
thorax -0.0328244 0.585778 1.09123
lowerneck -7.66055 -0.777004 -1.68658
upperneck 25.0661 -1.43173 2.6615
head 9.13348 -0.544716 1.05687
rclavicle 2.14936e-014 3.57812e-015
rhumerus -32.6983 3.95667 -77.9437
rradius 42.3215
rwrist 31.6402
rhand -15.8399 -24.9272
rfingers 7.12502
rthumb 10.3546 -54.6522
lclavicle 2.14936e-014 3.57812e-015
lhumerus -45.3745 -21.0796 82.075
lradius 40.431
lwrist 34.5239
lhand -22.2106 -4.76209
lfingers 7.12502
lthumb 4.20542 25.1761
rfemur -35.8871 -6.4627 22.2515
rtibia 23.2931
rfoot 16.3978 -1.2616
rtoes 13.534
lfemur -33.9722 10.1755 -19.8572
ltibia 21.5776
lfoot 17.8697 -4.52868
ltoes -5.96834
357
root 0.511453 19.8063 5.21531 6.74923 -0.0228856 -1.5242
lowerback 6.1345 1.04182 -1.05918
upperback 3.61039 1.33166 0.397956
thorax 0.243787 0.646017 0.925118
lowerneck -7.53081 -0.77796 -1.72033
upperneck 25.5813 -1.44592 2.69008
head 9.2907 -0.550122 1.07498
rclavicle -7.52897e-015 1.39149e-015
rhumerus -33.2639 4.4016 -77.8776
rradius 43.0734
rwrist 31.3648
rhand -15.8721 -24.9242
rfingers 7.12502
rthumb 10.3235 -54.6509
lclavicle -7.52897e-015 1.39149e-015
lhumerus -46.5212 -21.472 81.9154
lradius 41.7592
lwrist 35.0218
lhand -22.3751 -4.72861
lfingers 7.12502
lthumb 4.04653 25.2127
rfemur -35.0775 -5.94353 21.931
rtibia 21.9508
rfoot 16.9131 -2.38489
rtoes 15.4899
lfemur -32.6046 9.82204 -19.4278
ltibia 19.9266
lfoot 18.9616 -3.8391
ltoes -5.46025
